<svg xmlns="http://www.w3.org/2000/svg" width="1200" height="900" viewBox="0 0 1200 900">
  <style>.t{font:700 30px Arial}.b{fill:#f8fafc;stroke:#334155;stroke-width:2;rx:10}.l{font:600 18px Arial;fill:#0f172a}.d{font:14px Arial;fill:#475569}.e{stroke:#64748b;stroke-width:2;marker-end:url(#a)}.cap{font:14px Arial;fill:#64748b}</style>
  <defs><marker id="a" markerWidth="10" markerHeight="10" refX="9" refY="3" orient="auto"><path d="M0,0 L0,6 L9,3 z" fill="#64748b"/></marker></defs>
  <rect width="1200" height="900" fill="#ffffff"/><text x="40" y="55" class="t">Database Relationship Diagram</text><rect class="b" x="55" y="105" width="290" height="82"/>
      <text class="l" x="73" y="137">Advertisement</text>
      <text class="d" x="73" y="163">References: Branch</text><rect class="b" x="455" y="105" width="290" height="82"/>
      <text class="l" x="473" y="137">Announcement</text>
      <text class="d" x="473" y="163">References: Branch, User</text><rect class="b" x="855" y="105" width="290" height="82"/>
      <text class="l" x="873" y="137">Attendance</text>
      <text class="d" x="873" y="163">References: Student, Class, User, Branch, AttendancePolicy</text><rect class="b" x="55" y="255" width="290" height="82"/>
      <text class="l" x="73" y="287">AttendancePolicy</text>
      <text class="d" x="73" y="313">References: Branch</text><rect class="b" x="455" y="255" width="290" height="82"/>
      <text class="l" x="473" y="287">AuditLog</text>
      <text class="d" x="473" y="313">References: User, Branch</text><rect class="b" x="855" y="255" width="290" height="82"/>
      <text class="l" x="873" y="287">Branch</text>
      <text class="d" x="873" y="313">References: Owner, User</text><rect class="b" x="55" y="405" width="290" height="82"/>
      <text class="l" x="73" y="437">Class</text>
      <text class="d" x="73" y="463">References: Branch, Subject, User</text><rect class="b" x="455" y="405" width="290" height="82"/>
      <text class="l" x="473" y="437">Course</text>
      <text class="d" x="473" y="463">References: Branch, User, Subject</text><rect class="b" x="855" y="405" width="290" height="82"/>
      <text class="l" x="873" y="437">Curriculum</text>
      <text class="d" x="873" y="463">References: Branch, Class, Subject</text><rect class="b" x="55" y="555" width="290" height="82"/>
      <text class="l" x="73" y="587">Enrollment</text>
      <text class="d" x="73" y="613">References: Student, Class, Subject, User, Branch</text><rect class="b" x="455" y="555" width="290" height="82"/>
      <text class="l" x="473" y="587">Exam</text>
      <text class="d" x="473" y="613">References: Branch, Subject, Class, User</text><rect class="b" x="855" y="555" width="290" height="82"/>
      <text class="l" x="873" y="587">ExamResult</text>
      <text class="d" x="873" y="613">References: Student, Exam, Subject, User</text><rect class="b" x="55" y="705" width="290" height="82"/>
      <text class="l" x="73" y="737">Expense</text>
      <text class="d" x="73" y="763">References: Branch, User</text><rect class="b" x="455" y="705" width="290" height="82"/>
      <text class="l" x="473" y="737">Family</text>
      <text class="d" x="473" y="763">References: Student</text><rect class="b" x="855" y="705" width="290" height="82"/>
      <text class="l" x="873" y="737">FamilyLink</text>
      <text class="d" x="873" y="763">References: Parent, Student</text><text class="cap" x="40" y="872">Generated from project source files in backend, frontend, and Nokta_App/frontend_mobile.</text></svg>