<svg xmlns="http://www.w3.org/2000/svg" width="1200" height="560" viewBox="0 0 1200 560">
  <style>.t{font:700 30px Arial}.b{fill:#f8fafc;stroke:#334155;stroke-width:2;rx:10}.l{font:600 18px Arial;fill:#0f172a}.d{font:14px Arial;fill:#475569}.e{stroke:#64748b;stroke-width:2;marker-end:url(#a)}.cap{font:14px Arial;fill:#64748b}</style>
  <defs><marker id="a" markerWidth="10" markerHeight="10" refX="9" refY="3" orient="auto"><path d="M0,0 L0,6 L9,3 z" fill="#64748b"/></marker></defs>
  <rect width="1200" height="560" fill="#ffffff"/><text x="40" y="55" class="t">Project Folder Structure Diagram</text><line class="e" x1="745" y1="146" x2="55" y2="146"/><line class="e" x1="1145" y1="146" x2="55" y2="146"/><rect class="b" x="55" y="105" width="290" height="82"/>
      <text class="l" x="73" y="137">backend/</text>
      <text class="d" x="73" y="163">Express API, Mongoose models, modules, middleware</text><rect class="b" x="455" y="105" width="290" height="82"/>
      <text class="l" x="473" y="137">frontend/</text>
      <text class="d" x="473" y="163">React web application, PWA assets, styles</text><rect class="b" x="855" y="105" width="290" height="82"/>
      <text class="l" x="873" y="137">Nokta_App/frontend_mobile/</text>
      <text class="d" x="873" y="163">Mobile frontend copy</text><rect class="b" x="55" y="255" width="290" height="82"/>
      <text class="l" x="73" y="287">Nokta_Academy_Info/</text>
      <text class="d" x="73" y="313">Route, system, user, and progress notes</text><rect class="b" x="455" y="255" width="290" height="82"/>
      <text class="l" x="473" y="287">account/</text>
      <text class="d" x="473" y="313">Local account and requirement notes</text><text class="cap" x="40" y="532">Generated from project source files in backend, frontend, and Nokta_App/frontend_mobile.</text></svg>